<svg width="107" height="32" viewBox="0 0 107 32" fill="none" xmlns="http://www.w3.org/2000/svg">
<path d="M10 14H14V18H18V14H21.6162V2H29.999V14H33.6162V18H37.6162V14H41.6162V2H49.6162V18H45.6162V21.999H41.6162V25.999H37.6162V29.999H33.6162V25.999H29.6162V21.999H21.999V25.999H18V29.999H14V25.999H10V21.999H6V18H2V2H10V14ZM71.3691 25.999H79.3682V29.999H55.3691V25.999H63.3691V14H59.3691V10H71.3691V25.999ZM97 10H104.999V14H97V29.999H89V14H81V10H89V2H97V10ZM71.3691 6H63.3691V2H71.3691V6Z" fill="white"/>
</svg>
